<svg width="878" height="456" viewBox="0 0 878 456" fill="none" xmlns="http://www.w3.org/2000/svg">
<mask id="mask0_4_751" style="mask-type:luminance" maskUnits="userSpaceOnUse" x="368" y="0" width="156" height="156">
<path d="M523.387 0H368.447V155.391H523.387V0Z" fill="white"/>
</mask>
<g mask="url(#mask0_4_751)">
<path fill-rule="evenodd" clip-rule="evenodd" d="M448.337 145.679C417.582 145.679 392.656 119.656 392.656 90.4421C392.656 83.6587 392.806 78.1519 397.497 72.8395C396.989 75.9183 404.262 102.242 428.026 100.863C426.994 80.8614 421.601 31.86 446.653 14.9224C444.44 41.5525 450.942 77.3264 479.95 82.5517C478.29 71.8732 478.488 54.1101 485.945 50.8275C486.748 67.1873 498.81 77.2779 498.81 93.0012C498.81 121.477 471.341 145.679 448.337 145.679ZM493.876 33.7636C472.644 39.8336 468.756 57.048 470.126 67.9835C454.98 50.1233 455.601 29.5874 455.601 0C407.027 18.3701 418.322 71.3245 416.865 87.4073C404.649 77.3799 402.34 53.4157 402.34 53.4157C389.441 60.0732 382.972 77.846 382.972 92.2637C382.972 127.13 411.152 155.391 445.917 155.391C480.682 155.391 508.861 127.13 508.861 92.2637C508.861 71.543 493.692 61.9864 493.876 33.7636Z" fill="#FEF3E2"/>
</g>
<path d="M450.474 100.547C455.508 100.547 459.588 96.4542 459.588 91.4059C459.588 86.3577 455.508 82.2653 450.474 82.2653C445.441 82.2653 441.36 86.3577 441.36 91.4059C441.36 96.4542 445.441 100.547 450.474 100.547Z" fill="#FEF3E2"/>
<path d="M377.56 169.102C377.56 160.099 379.446 151.184 383.111 142.867C386.775 134.55 392.146 126.992 398.916 120.626C405.687 114.26 413.724 109.21 422.571 105.765C431.417 102.32 440.899 100.547 450.473 100.547C460.049 100.547 469.53 102.32 478.377 105.765C487.222 109.21 495.261 114.26 502.031 120.626C508.802 126.992 514.172 134.55 517.837 142.867C521.501 151.184 523.387 160.099 523.387 169.102H450.473H377.56Z" fill="#FEF3E2"/>
<path d="M16.7124 408.828V177.683H52.9299V271.792H91.7816V177.683H127.999V408.828H91.7816V304.812H52.9299V408.828H16.7124ZM197.445 412.13C161.886 412.13 142.46 390.996 142.46 354.013V232.497C142.46 195.514 161.886 174.381 197.445 174.381C233.004 174.381 252.43 195.514 252.43 232.497V354.013C252.43 390.996 233.004 412.13 197.445 412.13ZM197.445 379.109C208.969 379.109 216.212 372.835 216.212 356.325V230.186C216.212 213.675 208.969 207.401 197.445 207.401C185.921 207.401 178.678 213.675 178.678 230.186V356.325C178.678 372.835 185.921 379.109 197.445 379.109ZM294.074 408.828V210.703H256.211V177.683H368.156V210.703H330.292V408.828H294.074ZM375.814 408.828V177.683H427.506L450.553 343.116H451.212L474.259 177.683H525.952V408.828H491.71V233.818H491.051L464.711 408.828H434.42L408.08 233.818H407.422V408.828H375.814ZM543.101 408.828V177.683H641.876V210.703H579.318V271.792H629.035V304.812H579.318V375.807H641.876V408.828H543.101ZM643.285 408.828L680.82 177.683H729.878L767.413 408.828H731.195L724.61 362.929V363.589H683.454L676.869 408.828H643.285ZM687.734 332.22H720.33L704.197 217.968H703.538L687.734 332.22ZM775.106 408.828V177.683H811.327V375.807H870.921V408.828H775.106Z" fill="#FEF3E2"/>
</svg>
